<?xml version="1.0" encoding="UTF-8"?>
<svg id="Layer_2" data-name="Layer 2" xmlns="http://www.w3.org/2000/svg" viewBox="0 0 432 464.65">
  <defs>
    <style>
      .cls-1, .cls-2, .cls-3, .cls-4, .cls-5 {
        stroke-miterlimit: 10;
      }

      .cls-1, .cls-2, .cls-4, .cls-5 {
        fill: none;
      }

      .cls-1, .cls-3 {
        stroke: #000;
      }

      .cls-2 {
        stroke-width: .15px;
      }

      .cls-2, .cls-4 {
        stroke: #2f292b;
      }

      .cls-3 {
        fill: #cf422d;
      }

      .cls-5 {
        stroke: #231f20;
      }
    </style>
  </defs>
  <g id="Layer_1-2" data-name="Layer 1">
    <line class="cls-2" x1="61.54" y1="76.99" x2="61.54" y2="464.15"/>
    <line class="cls-2" x1="69.42" y1="76.99" x2="69.42" y2="464.15"/>
    <line class="cls-2" x1="77.3" y1="76.99" x2="77.3" y2="464.15"/>
    <line class="cls-2" x1="85.18" y1="76.99" x2="85.18" y2="464.15"/>
    <line class="cls-2" x1="91.91" y1="76.99" x2="91.91" y2="464.15"/>
    <line class="cls-2" x1="99.79" y1="76.99" x2="99.79" y2="464.15"/>
    <line class="cls-2" x1="107.66" y1="76.99" x2="107.66" y2="464.15"/>
    <line class="cls-2" x1="115.54" y1="76.99" x2="115.54" y2="464.15"/>
    <line class="cls-2" x1="123.63" y1="76.99" x2="123.63" y2="464.15"/>
    <line class="cls-2" x1="131.51" y1="76.99" x2="131.51" y2="464.15"/>
    <line class="cls-2" x1="139.39" y1="76.99" x2="139.39" y2="464.15"/>
    <line class="cls-2" x1="147.27" y1="76.99" x2="147.27" y2="464.15"/>
    <line class="cls-2" x1="154" y1="76.99" x2="154" y2="464.15"/>
    <line class="cls-2" x1="161.88" y1="76.99" x2="161.88" y2="464.15"/>
    <line class="cls-2" x1="169.76" y1="76.99" x2="169.76" y2="464.15"/>
    <line class="cls-2" x1="177.64" y1="76.99" x2="177.64" y2="464.15"/>
    <line class="cls-2" x1="185.52" y1="76.99" x2="185.52" y2="464.15"/>
    <line class="cls-2" x1="193.4" y1="76.99" x2="193.4" y2="464.15"/>
    <line class="cls-2" x1="201.28" y1="76.99" x2="201.28" y2="464.15"/>
    <line class="cls-2" x1="209.16" y1="76.99" x2="209.16" y2="464.15"/>
    <line class="cls-2" x1="215.89" y1="76.99" x2="215.89" y2="464.15"/>
    <line class="cls-2" x1="223.77" y1="76.99" x2="223.77" y2="174.57"/>
    <line class="cls-2" x1="231.65" y1="76.99" x2="231.65" y2="174.57"/>
    <line class="cls-2" x1="239.53" y1="76.99" x2="239.53" y2="174.57"/>
    <line class="cls-2" x1="247.61" y1="76.99" x2="247.61" y2="174.57"/>
    <line class="cls-2" x1="255.49" y1="76.99" x2="255.49" y2="174.57"/>
    <line class="cls-2" x1="263.37" y1="76.99" x2="263.37" y2="174.57"/>
    <line class="cls-2" x1="271.25" y1="76.99" x2="271.25" y2="174.57"/>
    <line class="cls-2" x1="277.98" y1="76.99" x2="277.98" y2="174.57"/>
    <line class="cls-2" x1="285.86" y1="76.99" x2="285.86" y2="174.57"/>
    <line class="cls-2" x1="293.74" y1="76.99" x2="293.74" y2="174.57"/>
    <line class="cls-2" x1="301.62" y1="76.99" x2="301.62" y2="174.57"/>
    <line class="cls-2" x1="309.65" y1="76.99" x2="309.65" y2="174.57"/>
    <line class="cls-2" x1="317.73" y1="76.99" x2="317.73" y2="174.57"/>
    <line class="cls-2" x1="325.61" y1="76.99" x2="325.61" y2="174.57"/>
    <line class="cls-2" x1="333.49" y1="76.99" x2="333.49" y2="174.57"/>
    <line class="cls-2" x1="341.37" y1="76.99" x2="341.37" y2="174.57"/>
    <line class="cls-2" x1="348.1" y1="76.99" x2="348.1" y2="174.57"/>
    <line class="cls-2" x1="355.98" y1="76.99" x2="355.98" y2="464.15"/>
    <line class="cls-2" x1="363.86" y1="76.99" x2="363.86" y2="464.15"/>
    <line class="cls-2" x1="371.74" y1="76.99" x2="371.74" y2="464.15"/>
  </g>
  <g id="Layer_10" data-name="Layer 10">
    <rect class="cls-4" x="52.71" y="76.99" width="327.93" height="387.16"/>
    <rect class="cls-4" x="103.72" y=".5" width="236.97" height="69.23"/>
    <rect class="cls-4" x="156.74" y="69.73" width="14.24" height="7.26"/>
    <rect class="cls-4" x="274.63" y="69.73" width="14.24" height="7.26"/>
    <rect class="cls-4" x="216.68" y="174.57" width="136.27" height="289.58"/>
    <line class="cls-4" x1="432" y1="464.15" y2="464.15"/>
    <path class="cls-4" d="M226.76,333.6c1.02,1.12,2.62,2.47,4.75,2.77,5.36.74,7.62-6.12,14.24-6.73,2.16-.2,1.96.53,11.08,3.51,5.38,1.76,8.07,2.63,11.47,3.27,5.42,1.02,10.77,2.03,16.52,0,3.94-1.39,3.85-2.71,6.82-3.03,4.84-.51,6.13,2.89,12.26,4.07,5.77,1.11,10.8-.71,12.66-1.5,5.29-2.25,5.64-5.01,9.49-6.36,3.13-1.09,8.05-1.07,15.82,4.1"/>
    <path class="cls-5" d="M341.88,180.9v152.82c-10.31-5.65-15.26-5.11-17.87-3.37-1.59,1.05-1.88,2.27-4.62,4.11-1.42.96-4.93,3.04-9.75,3.37-4.54.31-8.16-1.07-10.11-1.82-3.81-1.46-4.06-2.52-6.42-2.64-3.17-.16-4.47,1.7-8.3,3.06-3.41,1.21-6.19,1.09-9.8.93-6.05-.26-8.33-1.35-22.55-6.23-3.51-1.21-4.92-1.79-7.12-1.48-6.01.83-8.08,6.94-13.05,6.78-1.36-.04-3.28-.57-5.54-2.82-1.01-50.9-2.02-101.8-3.03-152.7"/>
    <path class="cls-4" d="M341.88,180.9h-118.15,118.15Z"/>
    <rect class="cls-4" x="232.49" y="174.57" width="2.97" height="8.51"/>
    <rect class="cls-4" x="253.07" y="174.57" width="2.97" height="8.51"/>
    <rect class="cls-4" x="274.14" y="174.57" width="2.97" height="8.51"/>
    <rect class="cls-4" x="297.47" y="174.57" width="2.97" height="8.51"/>
    <rect class="cls-4" x="319.68" y="174.57" width="2.97" height="8.51"/>
    <line class="cls-2" x1="241.4" y1="180.9" x2="245.75" y2="329.64"/>
    <line class="cls-2" x1="287.39" y1="180.9" x2="291.83" y2="332.69"/>
    <line class="cls-2" x1="267.24" y1="180.9" x2="275.94" y2="337.82"/>
    <line class="cls-2" x1="310.1" y1="180.9" x2="310.1" y2="337.82"/>
    <line class="cls-2" x1="329.2" y1="180.9" x2="329.2" y2="328.43"/>
  </g>
  <g id="Layer_3" data-name="Layer 3">
    <rect class="cls-3" x="284.32" y="374.95" width="57.56" height="14.24" rx="3.95" ry="3.95"/>
    <rect class="cls-1" x="298.12" y="456.25" width="29.27" height="7.9" rx="3.95" ry="3.95"/>
    <rect class="cls-1" x="309.24" y="389.19" width="7.72" height="67.05"/>
  </g>
</svg>